<svg xmlns="http://www.w3.org/2000/svg" viewBox="0 0 512 512">
  <defs>
    <radialGradient id="bg" cx="35%" cy="28%" r="80%">
      <stop offset="0" stop-color="#7f59d2"/>
      <stop offset=".55" stop-color="#321c55"/>
      <stop offset="1" stop-color="#10091f"/>
    </radialGradient>
    <linearGradient id="gold" x1="0" y1="0" x2="1" y2="1">
      <stop stop-color="#fff1a9"/><stop offset="1" stop-color="#e69a41"/>
    </linearGradient>
  </defs>
  <rect width="512" height="512" rx="112" fill="url(#bg)"/>
  <circle cx="256" cy="238" r="153" fill="#24123e" stroke="#f3c86d" stroke-width="14"/>
  <path d="M149 190 96 101l107 55M363 190l53-89-107 55" fill="url(#gold)" stroke="#7c3f54" stroke-width="10" stroke-linejoin="round"/>
  <path d="M151 257c0-76 47-127 105-127s105 51 105 127c0 91-43 145-105 145s-105-54-105-145Z" fill="#b35f7e"/>
  <ellipse cx="210" cy="248" rx="21" ry="28" fill="#fff0a6"/>
  <ellipse cx="302" cy="248" rx="21" ry="28" fill="#fff0a6"/>
  <circle cx="210" cy="253" r="9" fill="#2b183c"/>
  <circle cx="302" cy="253" r="9" fill="#2b183c"/>
  <path d="M205 320q51 43 102 0" fill="none" stroke="#2b183c" stroke-width="16" stroke-linecap="round"/>
  <circle cx="256" cy="256" r="198" fill="none" stroke="#8beeff" stroke-opacity=".3" stroke-width="8"/>
</svg>
